 http://www.imdb.com/title/tt0017136/

Widely considered the most influential of all silent films, Metropolis has stood the test of time and may be more popular now than ever, and this after both a dismal showing in the 1927 premiere and a series of butchering edits over the years that have destroyed large sections of film’s original cut. While the original version of Metropolis is lost forever, The Murnua Foundation oversaw a restoration of Metropolis that was released on DVD in 2002, restoring the original version as much as possible. This includes the original orchestral score by Gottfried Huppertz. Summaries are interjected throughout the film to provide the missing story elements for scenes which have decayed or been lost.


SUBS: English


General

Format                           : AVI
Format/Info                      : Audio Video Interleave

Overall bit rate                 : 1 348 Kbps
Writing application              : MEncoder UNKNOWN-4.2.4
Writing library                  : MPlayer

Video
ID                               : 0
Format                           : MPEG-4 Visual
Format profile                   : Advanced Simple@L5
Format settings, BVOP            : Yes
Format settings, QPel            : No
Format settings, GMC             : No warppoints
Format settings, Matrix          : Default (H.263)
Codec ID                         : XVID
Codec ID/Hint                    : XviD
Bit rate                         : 895 Kbps
Width                            : 512 pixels
Height                           : 384 pixels
Display aspect ratio             : 4/3
Frame rate                       : 25.000 fps
Resolution                       : 24 bits
Colorimetry                      : 4:2:0
Scan type                        : Progressive
Bits/(Pixel*Frame)               : 0.182
Stream size                      : 408 MiB (66%)
Writing library                  : XviD 1.2.1 (UTC 2008-12-04)

Audio
ID                               : 1
Format                           : AC-3
Format/Info                      : Audio Coding 3
Codec ID                         : 2000
Duration                         : 1h 3mn
Bit rate mode                    : Constant
Bit rate                         : 448 Kbps
Channel(s)                       : 6 channels
Channel positions                : Front: L C R, Surround: L R, LFE
Sampling rate                    : 48.0 KHz
Video delay                      : 40ms
Stream size                      : 204 MiB (33%)
Alignment                        : Split accross interleaves
Interleave, duration             : 500 ms (12.50 video frames)
Interleave, preload duration     : 500 ms